<svg width="1200" height="630" viewBox="0 0 1200 630" fill="none" xmlns="http://www.w3.org/2000/svg">
  <defs>
    <linearGradient id="grad2" x1="0%" y1="0%" x2="100%" y2="100%">
      <stop offset="0%" style="stop-color:#059669;stop-opacity:1" />
      <stop offset="100%" style="stop-color:#0891b2;stop-opacity:1" />
    </linearGradient>
  </defs>
  <rect width="1200" height="630" fill="url(#grad2)"/>
  
  <!-- Communication bubbles -->
  <circle cx="250" cy="200" r="60" fill="white" opacity="0.9"/>
  <circle cx="400" cy="300" r="70" fill="white" opacity="0.8"/>
  <circle cx="300" cy="400" r="50" fill="white" opacity="0.9"/>
  
  <!-- Message icons in bubbles -->
  <rect x="225" y="185" width="50" height="30" rx="5" fill="#059669"/>
  <line x1="235" y1="195" x2="265" y2="195" stroke="white" stroke-width="2"/>
  <line x1="235" y1="205" x2="260" y2="205" stroke="white" stroke-width="2"/>
  
  <rect x="370" y="280" width="60" height="40" rx="8" fill="#0891b2"/>
  <line x1="380" y1="295" x2="420" y2="295" stroke="white" stroke-width="2"/>
  <line x1="380" y1="305" x2="415" y2="305" stroke="white" stroke-width="2"/>
  
  <!-- Text -->
  <text x="600" y="280" font-family="system-ui, -apple-system, sans-serif" font-size="44" font-weight="700" fill="white">
    Parent Communication
  </text>
  <text x="600" y="340" font-family="system-ui, -apple-system, sans-serif" font-size="28" fill="white" opacity="0.9">
    AI-Powered Messages
  </text>
  <text x="600" y="380" font-family="system-ui, -apple-system, sans-serif" font-size="18" fill="white" opacity="0.8">
    Build stronger relationships with AI assistance
  </text>
  
  <!-- Connection lines -->
  <path d="M310 230 Q350 250 370 280" stroke="white" stroke-width="2" fill="none" opacity="0.6"/>
  <path d="M340 360 Q320 380 300 400" stroke="white" stroke-width="2" fill="none" opacity="0.6"/>
</svg>