<svg width="1200" height="630" viewBox="0 0 1200 630" fill="none" xmlns="http://www.w3.org/2000/svg">
  <defs>
    <linearGradient id="grad1" x1="0%" y1="0%" x2="100%" y2="100%">
      <stop offset="0%" style="stop-color:#9333ea;stop-opacity:1" />
      <stop offset="100%" style="stop-color:#3b82f6;stop-opacity:1" />
    </linearGradient>
  </defs>
  <rect width="1200" height="630" fill="url(#grad1)"/>
  
  <!-- AI Brain Icon -->
  <circle cx="300" cy="315" r="80" fill="white" opacity="0.9"/>
  <circle cx="300" cy="315" r="60" fill="none" stroke="#9333ea" stroke-width="3"/>
  
  <!-- Neural connections -->
  <circle cx="280" cy="295" r="8" fill="#9333ea"/>
  <circle cx="320" cy="295" r="8" fill="#9333ea"/>
  <circle cx="300" cy="335" r="8" fill="#9333ea"/>
  <circle cx="270" cy="340" r="6" fill="#3b82f6"/>
  <circle cx="330" cy="340" r="6" fill="#3b82f6"/>
  
  <line x1="280" y1="295" x2="320" y2="295" stroke="#9333ea" stroke-width="2"/>
  <line x1="280" y1="295" x2="300" y2="335" stroke="#9333ea" stroke-width="2"/>
  <line x1="320" y1="295" x2="300" y2="335" stroke="#9333ea" stroke-width="2"/>
  <line x1="270" y1="340" x2="300" y2="335" stroke="#3b82f6" stroke-width="2"/>
  <line x1="330" y1="340" x2="300" y2="335" stroke="#3b82f6" stroke-width="2"/>
  
  <!-- Text -->
  <text x="500" y="280" font-family="system-ui, -apple-system, sans-serif" font-size="48" font-weight="700" fill="white">
    AI Tools for Teachers
  </text>
  <text x="500" y="340" font-family="system-ui, -apple-system, sans-serif" font-size="24" fill="white" opacity="0.9">
    Best AI Tools for Education in 2025
  </text>
  <text x="500" y="380" font-family="system-ui, -apple-system, sans-serif" font-size="18" fill="white" opacity="0.8">
    Safe, Educational, and Effective Solutions
  </text>
  
  <!-- Decorative elements -->
  <circle cx="900" cy="150" r="20" fill="white" opacity="0.2"/>
  <circle cx="1050" cy="450" r="15" fill="white" opacity="0.3"/>
  <rect x="850" y="500" width="60" height="8" rx="4" fill="white" opacity="0.2"/>
</svg>