<svg width="1200" height="630" viewBox="0 0 1200 630" fill="none" xmlns="http://www.w3.org/2000/svg">
  <rect width="1200" height="630" fill="#f3f4f6"/>
  <rect x="50" y="50" width="1100" height="530" rx="12" fill="white" stroke="#e5e7eb" stroke-width="2"/>
  
  <!-- Icon -->
  <circle cx="600" cy="250" r="60" fill="#9333ea" opacity="0.1"/>
  <path d="M570 230h60v40h-60V230z" fill="#9333ea" opacity="0.3"/>
  <circle cx="585" cy="245" r="8" fill="#9333ea"/>
  <path d="M600 260l15-10 15 15v15h-30v-20z" fill="#9333ea"/>
  
  <!-- Text -->
  <text x="600" y="350" font-family="system-ui, -apple-system, sans-serif" font-size="32" font-weight="600" fill="#1f2937" text-anchor="middle">
    AI in Education Blog
  </text>
  <text x="600" y="390" font-family="system-ui, -apple-system, sans-serif" font-size="18" fill="#6b7280" text-anchor="middle">
    Featured Article Image
  </text>
  
  <!-- Decorative elements -->
  <circle cx="200" cy="150" r="4" fill="#9333ea" opacity="0.2"/>
  <circle cx="1000" cy="480" r="6" fill="#9333ea" opacity="0.2"/>
  <rect x="150" y="450" width="80" height="4" rx="2" fill="#e5e7eb"/>
  <rect x="150" y="470" width="120" height="4" rx="2" fill="#e5e7eb"/>
  <rect x="950" y="150" width="100" height="4" rx="2" fill="#e5e7eb"/>
  <rect x="950" y="170" width="80" height="4" rx="2" fill="#e5e7eb"/>
</svg>